<svg xmlns="http://www.w3.org/2000/svg" width="24px" height="24px" viewBox="0 0 24 24" overflow="visible" xml:space="preserve" focusable="false" aria-hidden="true">
                        <g ></g>
                        <g >
                            <path fill-opacity="25%" d="M23,8.9v6.2c0,2.2-1.8,4-4,4H5c-2.2,0-4-1.8-4-4V9c0-2.2,1.8-4,4-4h14C21.2,4.9,23,6.7,23,8.9z">
                            </path>
                            <path d="M19.8,10.3h-6.6c-0.4,0-0.8-0.3-0.8-0.8l0,0c0-0.4,0.3-0.8,0.8-0.8h6.5c0.4,0,0.8,0.3,0.8,0.8l0,0 C20.6,10,20.2,10.3,19.8,10.3z">
                            </path>
                            <path d="M16.2,12.8h-2.9c-0.4,0-0.8-0.3-0.8-0.8l0,0c0-0.4,0.3-0.8,0.8-0.8h2.8c0.4,0,0.8,0.3,0.8,0.8l0,0 C16.9,12.5,16.6,12.8,16.2,12.8z">
                            </path>
                            <circle cx="6.9" cy="9.5" r="2.3"></circle>
                            <path d="M8.3,16.8H5.5c-1,0-1.8-0.8-1.8-1.8v-0.4c0-1,0.8-1.8,1.8-1.8h2.8c1,0,1.8,0.8,1.8,1.8V15C10.2,16,9.3,16.8,8.3,16.8z">
                            </path>
                        </g>
                    </svg>